<mxfile host="app.diagrams.net" agent="Mozilla/5.0 (Macintosh; Intel Mac OS X 10_15_7) AppleWebKit/537.36 (KHTML, like Gecko) Chrome/139.0.0.0 Safari/537.36" version="25.0.1">
  <diagram name="Page-1" id="C8NSOBrv79tDnDeP1kUS">
    <mxGraphModel grid="1" page="1" gridSize="10" guides="1" tooltips="1" connect="1" arrows="1" fold="1" pageScale="1" pageWidth="827" pageHeight="1169" math="0" shadow="0">
      <root>
        <mxCell id="0" />
        <mxCell id="1" parent="0" />
        <mxCell id="aNiqXzNtH5demji9GXow-50" value="&lt;font style=&quot;font-size: 10px;&quot; color=&quot;#969696&quot;&gt;Contract address 0x789ccc...&lt;/font&gt;" style="rounded=1;whiteSpace=wrap;html=1;arcSize=3;align=left;verticalAlign=bottom;spacingLeft=8;spacingBottom=4;" vertex="1" parent="1">
          <mxGeometry x="600" y="200" width="1120" height="490" as="geometry" />
        </mxCell>
        <mxCell id="aNiqXzNtH5demji9GXow-49" value="&lt;font style=&quot;font-size: 10px;&quot; color=&quot;#969696&quot;&gt;Contract address 0x456bbb...&lt;/font&gt;" style="rounded=1;whiteSpace=wrap;html=1;arcSize=3;align=left;verticalAlign=bottom;spacingLeft=8;spacingBottom=4;" vertex="1" parent="1">
          <mxGeometry x="580" y="180" width="1120" height="490" as="geometry" />
        </mxCell>
        <mxCell id="aNiqXzNtH5demji9GXow-4" value="&lt;font style=&quot;font-size: 10px;&quot; color=&quot;#969696&quot;&gt;Contract address 0x123aaa...&lt;/font&gt;" style="rounded=1;whiteSpace=wrap;html=1;arcSize=3;align=left;verticalAlign=bottom;spacingLeft=8;spacingBottom=4;" vertex="1" parent="1">
          <mxGeometry x="560" y="160" width="1120" height="490" as="geometry" />
        </mxCell>
        <mxCell id="aNiqXzNtH5demji9GXow-1" value="type &lt;b&gt;SequencerManager&lt;/b&gt; interface&lt;br&gt;&lt;br&gt;&lt;br&gt;CallPrivateSmartContract()&lt;br&gt;GetTxStatus()&lt;br&gt;HandleNewTx()&lt;div&gt;&lt;br&gt;HandleTransactionCollected()&lt;br&gt;HandleNonceAssigned()&lt;br&gt;HandlePublicTXSubmission()&lt;/div&gt;&lt;div&gt;&lt;br&gt;&lt;/div&gt;&lt;div&gt;&lt;br&gt;HandleTransactionConfirmed()&lt;br&gt;HandleTransactionFailed()&lt;/div&gt;&lt;div&gt;&lt;br&gt;&lt;/div&gt;&lt;div&gt;&lt;br&gt;&lt;/div&gt;&lt;div&gt;&lt;br&gt;&lt;/div&gt;&lt;div&gt;HandlePaladinMsg()&lt;br&gt;WriteOrDistributeReceiptsPostSubmit()&lt;/div&gt;" style="rounded=1;whiteSpace=wrap;fontSize=7;align=left;verticalAlign=top;arcSize=5;fontFamily=Courier New;spacingLeft=6;spacingTop=2;html=1;" vertex="1" parent="1">
          <mxGeometry y="305" width="200" height="180" as="geometry" />
        </mxCell>
        <mxCell id="aNiqXzNtH5demji9GXow-2" value="type &lt;b&gt;SequencerLifecycle&lt;/b&gt; interface&lt;br&gt;&lt;br&gt;LoadSequencer(contractAddress)" style="rounded=1;whiteSpace=wrap;fontSize=7;align=left;verticalAlign=top;arcSize=5;fontFamily=Courier New;spacingLeft=6;spacingTop=2;html=1;" vertex="1" parent="1">
          <mxGeometry x="270" y="370" width="200" height="50" as="geometry" />
        </mxCell>
        <mxCell id="aNiqXzNtH5demji9GXow-3" value="type &lt;b&gt;Sequencer&lt;/b&gt; interface&lt;br&gt;&lt;br&gt;CallPrivateSmartContract()&lt;br&gt;GetTxStatus()&lt;br&gt;HandleNewTx()&lt;br&gt;HandleTransactionCollected()&lt;br&gt;HandleNonceAssigned()&lt;br&gt;HandlePublicTXSubmission()&lt;br&gt;HandleTransactionConfirmed()&lt;br&gt;HandleTransactionFailed()&lt;br&gt;HandlePaladinMsg()&lt;br&gt;WriteOrDistributeReceiptsPostSubmit()" style="rounded=1;whiteSpace=wrap;fontSize=7;align=left;verticalAlign=top;arcSize=5;fontFamily=Courier New;spacingLeft=6;spacingTop=2;html=1;" vertex="1" parent="1">
          <mxGeometry x="582" y="345" width="200" height="120" as="geometry" />
        </mxCell>
        <mxCell id="aNiqXzNtH5demji9GXow-5" value="type &lt;b&gt;SeqCoordinator&lt;/b&gt; interface&lt;br&gt;&lt;br&gt;CallPrivateSmartContract()&lt;br&gt;GetTxStatus()&lt;br&gt;HandleNewTx()&lt;br&gt;HandleTransactionCollected()&lt;br&gt;HandleNonceAssigned()&lt;br&gt;HandlePublicTXSubmission()&lt;br&gt;HandleTransactionConfirmed()&lt;br&gt;HandleTransactionFailed()&lt;br&gt;HandlePaladinMsg()&lt;br&gt;WriteOrDistributeReceiptsPostSubmit()" style="rounded=1;whiteSpace=wrap;fontSize=7;align=left;verticalAlign=top;arcSize=5;fontFamily=Courier New;spacingLeft=6;spacingTop=2;html=1;" vertex="1" parent="1">
          <mxGeometry x="822" y="225" width="200" height="120" as="geometry" />
        </mxCell>
        <mxCell id="aNiqXzNtH5demji9GXow-6" value="type &lt;b&gt;SeqSender&lt;/b&gt; interface&lt;br&gt;&lt;br&gt;CallPrivateSmartContract()&lt;br&gt;GetTxStatus()&lt;br&gt;HandleNewTx()&lt;br&gt;HandleTransactionCollected()&lt;br&gt;HandleNonceAssigned()&lt;br&gt;HandlePublicTXSubmission()&lt;br&gt;HandleTransactionConfirmed()&lt;br&gt;HandleTransactionFailed()&lt;br&gt;HandlePaladinMsg()&lt;br&gt;WriteOrDistributeReceiptsPostSubmit()" style="rounded=1;whiteSpace=wrap;fontSize=7;align=left;verticalAlign=top;arcSize=5;fontFamily=Courier New;spacingLeft=6;spacingTop=2;html=1;" vertex="1" parent="1">
          <mxGeometry x="822" y="465" width="200" height="120" as="geometry" />
        </mxCell>
        <mxCell id="aNiqXzNtH5demji9GXow-7" value="type &lt;b&gt;TransportWriter&lt;/b&gt; interface&lt;br&gt;&lt;br&gt;&lt;br&gt;&lt;br&gt;&lt;div&gt;SendHandoverRequest()&lt;br&gt;SendHeartbeat()&lt;br&gt;&lt;br&gt;&lt;br&gt;&lt;br&gt;&lt;br&gt;&lt;br&gt;&lt;br&gt;&lt;br&gt;&lt;br&gt;SendAssembleRequest()&lt;br&gt;SendEndorsementRequest()&lt;br&gt;SendPreDispatchRequest()&lt;br&gt;SendTransactionSubmitted()&lt;br&gt;SendTransactionConfirmed()&lt;br&gt;SendDelegationRequestAcknowledgment()&lt;br&gt;SendDispatched()&lt;br&gt;SendNonceAssigned()&lt;br&gt;&lt;br&gt;&lt;br&gt;&lt;br&gt;&lt;br&gt;&lt;br&gt;&lt;br&gt;&lt;br&gt;&lt;br&gt;&lt;br&gt;&lt;br&gt;&lt;br&gt;&lt;/div&gt;&lt;div&gt;SendDelegationRequest()&lt;div&gt;&lt;br&gt;&lt;/div&gt;&lt;div&gt;&lt;br&gt;&lt;/div&gt;&lt;div&gt;&lt;br&gt;&lt;/div&gt;&lt;div&gt;&lt;br&gt;&lt;/div&gt;&lt;div&gt;&lt;br&gt;&lt;/div&gt;&lt;div&gt;&lt;br&gt;&lt;/div&gt;&lt;div&gt;&lt;br&gt;&lt;/div&gt;&lt;div&gt;&lt;br&gt;&lt;/div&gt;&lt;div&gt;&lt;br&gt;&lt;/div&gt;&lt;div&gt;&lt;br&gt;&lt;/div&gt;&lt;div&gt;&lt;br&gt;SendAssembleResponse()&lt;br&gt;SendEndorsementResponse()&lt;br&gt;SendPreDispatchResponse()&lt;/div&gt;&lt;/div&gt;" style="rounded=1;whiteSpace=wrap;fontSize=7;align=left;verticalAlign=top;arcSize=5;fontFamily=Courier New;spacingLeft=6;spacingTop=2;html=1;" vertex="1" parent="1">
          <mxGeometry x="1230" y="180" width="200" height="450" as="geometry" />
        </mxCell>
        <mxCell id="aNiqXzNtH5demji9GXow-8" value="&lt;font&gt;Coord&lt;/font&gt;&lt;div&gt;&lt;font&gt;state&lt;/font&gt;&lt;/div&gt;&lt;div&gt;&lt;font&gt;machine&lt;/font&gt;&lt;/div&gt;" style="rhombus;whiteSpace=wrap;html=1;fontSize=9;" vertex="1" parent="1">
          <mxGeometry x="1082" y="190" width="80" height="80" as="geometry" />
        </mxCell>
        <mxCell id="aNiqXzNtH5demji9GXow-9" value="&lt;font&gt;Coord&lt;/font&gt;&lt;div&gt;&lt;font&gt;TX state&lt;/font&gt;&lt;/div&gt;&lt;div&gt;&lt;font&gt;machine&lt;/font&gt;&lt;/div&gt;" style="rhombus;whiteSpace=wrap;html=1;fontSize=9;" vertex="1" parent="1">
          <mxGeometry x="1082" y="290" width="80" height="80" as="geometry" />
        </mxCell>
        <mxCell id="aNiqXzNtH5demji9GXow-10" value="&lt;font&gt;Coord&lt;/font&gt;&lt;div&gt;&lt;font&gt;TX state&lt;/font&gt;&lt;/div&gt;&lt;div&gt;&lt;font&gt;machine&lt;/font&gt;&lt;/div&gt;" style="rhombus;whiteSpace=wrap;html=1;fontSize=9;" vertex="1" parent="1">
          <mxGeometry x="1082" y="300" width="80" height="80" as="geometry" />
        </mxCell>
        <mxCell id="aNiqXzNtH5demji9GXow-11" value="&lt;font&gt;Coord&lt;/font&gt;&lt;div&gt;&lt;font&gt;TX state&lt;/font&gt;&lt;/div&gt;&lt;div&gt;&lt;font&gt;machines&lt;/font&gt;&lt;/div&gt;" style="rhombus;whiteSpace=wrap;html=1;fontSize=9;direction=south;" vertex="1" parent="1">
          <mxGeometry x="1082" y="310" width="80" height="80" as="geometry" />
        </mxCell>
        <mxCell id="aNiqXzNtH5demji9GXow-12" value="&lt;div&gt;&lt;font&gt;Sender&lt;/font&gt;&lt;/div&gt;&lt;div&gt;&lt;font&gt;state&lt;/font&gt;&lt;/div&gt;&lt;div&gt;&lt;font&gt;machine&lt;/font&gt;&lt;/div&gt;" style="rhombus;whiteSpace=wrap;html=1;fontSize=9;" vertex="1" parent="1">
          <mxGeometry x="1082" y="430" width="80" height="80" as="geometry" />
        </mxCell>
        <mxCell id="aNiqXzNtH5demji9GXow-13" value="&lt;font&gt;Coord&lt;/font&gt;&lt;div&gt;&lt;font&gt;TX state&lt;/font&gt;&lt;/div&gt;&lt;div&gt;&lt;font&gt;machine&lt;/font&gt;&lt;/div&gt;" style="rhombus;whiteSpace=wrap;html=1;fontSize=9;" vertex="1" parent="1">
          <mxGeometry x="1082" y="530" width="80" height="80" as="geometry" />
        </mxCell>
        <mxCell id="aNiqXzNtH5demji9GXow-14" value="&lt;font&gt;Coord&lt;/font&gt;&lt;div&gt;&lt;font&gt;TX state&lt;/font&gt;&lt;/div&gt;&lt;div&gt;&lt;font&gt;machine&lt;/font&gt;&lt;/div&gt;" style="rhombus;whiteSpace=wrap;html=1;fontSize=9;" vertex="1" parent="1">
          <mxGeometry x="1082" y="540" width="80" height="80" as="geometry" />
        </mxCell>
        <mxCell id="aNiqXzNtH5demji9GXow-15" value="Sender&lt;br&gt;&lt;div&gt;&lt;font&gt;TX state&lt;/font&gt;&lt;/div&gt;&lt;div&gt;&lt;font&gt;machines&lt;/font&gt;&lt;/div&gt;" style="rhombus;whiteSpace=wrap;html=1;fontSize=9;direction=south;" vertex="1" parent="1">
          <mxGeometry x="1082" y="550" width="80" height="80" as="geometry" />
        </mxCell>
        <mxCell id="aNiqXzNtH5demji9GXow-23" value="" style="endArrow=classic;html=1;rounded=0;entryX=0;entryY=0.5;entryDx=0;entryDy=0;exitX=1;exitY=0.5;exitDx=0;exitDy=0;" edge="1" parent="1" source="aNiqXzNtH5demji9GXow-5" target="aNiqXzNtH5demji9GXow-10">
          <mxGeometry width="50" height="50" relative="1" as="geometry">
            <mxPoint x="780" y="430" as="sourcePoint" />
            <mxPoint x="830" y="380" as="targetPoint" />
          </mxGeometry>
        </mxCell>
        <mxCell id="aNiqXzNtH5demji9GXow-24" value="" style="endArrow=classic;html=1;rounded=0;entryX=0;entryY=0.5;entryDx=0;entryDy=0;exitX=1;exitY=0.5;exitDx=0;exitDy=0;" edge="1" parent="1" source="aNiqXzNtH5demji9GXow-5" target="aNiqXzNtH5demji9GXow-8">
          <mxGeometry width="50" height="50" relative="1" as="geometry">
            <mxPoint x="780" y="430" as="sourcePoint" />
            <mxPoint x="830" y="380" as="targetPoint" />
          </mxGeometry>
        </mxCell>
        <mxCell id="aNiqXzNtH5demji9GXow-25" value="" style="endArrow=classic;html=1;rounded=0;entryX=0;entryY=0.5;entryDx=0;entryDy=0;exitX=1;exitY=0.5;exitDx=0;exitDy=0;" edge="1" parent="1" source="aNiqXzNtH5demji9GXow-6" target="aNiqXzNtH5demji9GXow-12">
          <mxGeometry width="50" height="50" relative="1" as="geometry">
            <mxPoint x="780" y="430" as="sourcePoint" />
            <mxPoint x="830" y="380" as="targetPoint" />
          </mxGeometry>
        </mxCell>
        <mxCell id="aNiqXzNtH5demji9GXow-26" value="" style="endArrow=classic;html=1;rounded=0;entryX=0;entryY=0.5;entryDx=0;entryDy=0;exitX=1;exitY=0.5;exitDx=0;exitDy=0;" edge="1" parent="1" source="aNiqXzNtH5demji9GXow-6" target="aNiqXzNtH5demji9GXow-14">
          <mxGeometry width="50" height="50" relative="1" as="geometry">
            <mxPoint x="780" y="430" as="sourcePoint" />
            <mxPoint x="830" y="380" as="targetPoint" />
          </mxGeometry>
        </mxCell>
        <mxCell id="aNiqXzNtH5demji9GXow-27" value="" style="endArrow=classic;html=1;rounded=0;entryX=0;entryY=0.5;entryDx=0;entryDy=0;exitX=1;exitY=0.5;exitDx=0;exitDy=0;" edge="1" parent="1" source="aNiqXzNtH5demji9GXow-3" target="aNiqXzNtH5demji9GXow-5">
          <mxGeometry width="50" height="50" relative="1" as="geometry">
            <mxPoint x="780" y="430" as="sourcePoint" />
            <mxPoint x="830" y="380" as="targetPoint" />
          </mxGeometry>
        </mxCell>
        <mxCell id="aNiqXzNtH5demji9GXow-28" value="" style="endArrow=classic;html=1;rounded=0;entryX=0;entryY=0.5;entryDx=0;entryDy=0;exitX=1;exitY=0.5;exitDx=0;exitDy=0;" edge="1" parent="1" source="aNiqXzNtH5demji9GXow-3" target="aNiqXzNtH5demji9GXow-6">
          <mxGeometry width="50" height="50" relative="1" as="geometry">
            <mxPoint x="780" y="430" as="sourcePoint" />
            <mxPoint x="830" y="380" as="targetPoint" />
          </mxGeometry>
        </mxCell>
        <mxCell id="aNiqXzNtH5demji9GXow-34" value="" style="shape=flexArrow;endArrow=classic;html=1;rounded=0;width=10.476190476190476;endSize=7.114285714285714;endWidth=12.154195011337869;" edge="1" parent="1">
          <mxGeometry width="50" height="50" relative="1" as="geometry">
            <mxPoint x="1170" y="229.76" as="sourcePoint" />
            <mxPoint x="1220" y="229.76" as="targetPoint" />
          </mxGeometry>
        </mxCell>
        <mxCell id="aNiqXzNtH5demji9GXow-35" value="" style="shape=flexArrow;endArrow=classic;html=1;rounded=0;width=10.476190476190476;endSize=7.114285714285714;endWidth=12.154195011337869;" edge="1" parent="1">
          <mxGeometry width="50" height="50" relative="1" as="geometry">
            <mxPoint x="1170" y="339.76" as="sourcePoint" />
            <mxPoint x="1220" y="339.76" as="targetPoint" />
          </mxGeometry>
        </mxCell>
        <mxCell id="aNiqXzNtH5demji9GXow-36" value="" style="shape=flexArrow;endArrow=classic;html=1;rounded=0;width=10.476190476190476;endSize=7.114285714285714;endWidth=12.154195011337869;" edge="1" parent="1">
          <mxGeometry width="50" height="50" relative="1" as="geometry">
            <mxPoint x="1170" y="469.76" as="sourcePoint" />
            <mxPoint x="1220" y="469.76" as="targetPoint" />
          </mxGeometry>
        </mxCell>
        <mxCell id="aNiqXzNtH5demji9GXow-37" value="" style="shape=flexArrow;endArrow=classic;html=1;rounded=0;width=10.476190476190476;endSize=7.114285714285714;endWidth=12.154195011337869;" edge="1" parent="1">
          <mxGeometry width="50" height="50" relative="1" as="geometry">
            <mxPoint x="1170" y="579.76" as="sourcePoint" />
            <mxPoint x="1220" y="579.76" as="targetPoint" />
          </mxGeometry>
        </mxCell>
        <mxCell id="aNiqXzNtH5demji9GXow-39" value="type &lt;b&gt;LoopbackTransportWriter&lt;/b&gt; interface&lt;div&gt;&lt;br&gt;&lt;/div&gt;&lt;div&gt;Send()&lt;/div&gt;" style="rounded=1;whiteSpace=wrap;fontSize=7;align=left;verticalAlign=top;arcSize=5;fontFamily=Courier New;spacingLeft=6;spacingTop=2;html=1;textDirection=ltr;" vertex="1" parent="1">
          <mxGeometry x="1470" y="330" width="190" height="50" as="geometry" />
        </mxCell>
        <mxCell id="aNiqXzNtH5demji9GXow-40" value="type &lt;b&gt;TransportManager&lt;/b&gt; interface&lt;div&gt;&lt;br&gt;&lt;/div&gt;&lt;div&gt;Send()&lt;/div&gt;" style="rounded=1;whiteSpace=wrap;fontSize=7;align=left;verticalAlign=top;arcSize=5;fontFamily=Courier New;spacingLeft=6;spacingTop=2;html=1;textDirection=ltr;" vertex="1" parent="1">
          <mxGeometry x="1470" y="415" width="190" height="50" as="geometry" />
        </mxCell>
        <mxCell id="aNiqXzNtH5demji9GXow-41" value="" style="endArrow=classic;html=1;rounded=0;entryX=0;entryY=0.5;entryDx=0;entryDy=0;exitX=1;exitY=0.5;exitDx=0;exitDy=0;" edge="1" parent="1" source="aNiqXzNtH5demji9GXow-7" target="aNiqXzNtH5demji9GXow-39">
          <mxGeometry width="50" height="50" relative="1" as="geometry">
            <mxPoint x="1390" y="400" as="sourcePoint" />
            <mxPoint x="1430" y="280" as="targetPoint" />
          </mxGeometry>
        </mxCell>
        <mxCell id="aNiqXzNtH5demji9GXow-42" value="" style="endArrow=classic;html=1;rounded=0;entryX=0;entryY=0.5;entryDx=0;entryDy=0;exitX=1;exitY=0.5;exitDx=0;exitDy=0;" edge="1" parent="1" source="aNiqXzNtH5demji9GXow-7" target="aNiqXzNtH5demji9GXow-40">
          <mxGeometry width="50" height="50" relative="1" as="geometry">
            <mxPoint x="1440" y="415" as="sourcePoint" />
            <mxPoint x="1480" y="365" as="targetPoint" />
          </mxGeometry>
        </mxCell>
        <mxCell id="aNiqXzNtH5demji9GXow-43" value="" style="shape=flexArrow;endArrow=classic;html=1;rounded=0;width=10.476190476190476;endSize=7.114285714285714;endWidth=12.154195011337869;fillColor=#FFFFFF;" edge="1" parent="1">
          <mxGeometry width="50" height="50" relative="1" as="geometry">
            <mxPoint x="1670" y="439.76" as="sourcePoint" />
            <mxPoint x="1740" y="440" as="targetPoint" />
          </mxGeometry>
        </mxCell>
        <mxCell id="aNiqXzNtH5demji9GXow-44" value="&lt;font style=&quot;font-size: 12px;&quot;&gt;peer node&lt;/font&gt;" style="rounded=1;whiteSpace=wrap;fontSize=7;align=left;verticalAlign=top;arcSize=5;fontFamily=Helvetica;spacingLeft=6;spacingTop=2;html=1;textDirection=ltr;strokeColor=none;" vertex="1" parent="1">
          <mxGeometry x="1750" y="420" width="90" height="30" as="geometry" />
        </mxCell>
        <mxCell id="aNiqXzNtH5demji9GXow-45" value="" style="html=1;shadow=0;dashed=0;align=center;verticalAlign=middle;shape=mxgraph.arrows2.uTurnArrow;dy=6.83;arrowHead=29.43;dx2=25;rotation=-180;flipV=1;" vertex="1" parent="1">
          <mxGeometry x="1670" y="110" width="120" height="250" as="geometry" />
        </mxCell>
        <mxCell id="aNiqXzNtH5demji9GXow-46" value="&lt;font style=&quot;font-size: 12px;&quot;&gt;HandlePaladinMsg()&lt;/font&gt;" style="rounded=1;whiteSpace=wrap;fontSize=7;align=left;verticalAlign=top;arcSize=5;fontFamily=Helvetica;spacingLeft=6;spacingTop=2;html=1;textDirection=ltr;strokeColor=none;" vertex="1" parent="1">
          <mxGeometry x="1600" y="80" width="90" height="30" as="geometry" />
        </mxCell>
        <mxCell id="aNiqXzNtH5demji9GXow-52" value="&lt;span style=&quot;font-size: 12px;&quot;&gt;&amp;nbsp;- create&lt;/span&gt;&lt;div&gt;&lt;span style=&quot;font-size: 12px;&quot;&gt;&amp;nbsp;- load&lt;/span&gt;&lt;/div&gt;&lt;div&gt;&lt;span style=&quot;font-size: 12px;&quot;&gt;&amp;nbsp;- unload&lt;/span&gt;&lt;/div&gt;" style="rounded=1;whiteSpace=wrap;fontSize=7;align=left;verticalAlign=top;arcSize=5;fontFamily=Helvetica;spacingLeft=6;spacingTop=2;html=1;textDirection=ltr;strokeColor=none;" vertex="1" parent="1">
          <mxGeometry x="470" y="320" width="70" height="60" as="geometry" />
        </mxCell>
        <mxCell id="aNiqXzNtH5demji9GXow-53" value="&lt;b&gt;Paladin Components&lt;/b&gt;" style="rounded=1;whiteSpace=wrap;fontSize=7;align=center;verticalAlign=top;arcSize=5;fontFamily=Helvetica;spacingLeft=6;spacingTop=2;html=1;" vertex="1" parent="1">
          <mxGeometry x="-200" y="292.5" width="150" height="205" as="geometry" />
        </mxCell>
        <mxCell id="aNiqXzNtH5demji9GXow-54" value="&lt;b&gt;TX Manager/RPC Module&lt;/b&gt;" style="rounded=1;whiteSpace=wrap;fontSize=7;align=center;verticalAlign=middle;arcSize=5;fontFamily=Helvetica;spacingLeft=6;spacingTop=2;html=1;" vertex="1" parent="1">
          <mxGeometry x="-180" y="327.5" width="110" height="30" as="geometry" />
        </mxCell>
        <mxCell id="aNiqXzNtH5demji9GXow-55" value="&lt;b&gt;PublicTXManager&lt;/b&gt;" style="rounded=1;whiteSpace=wrap;fontSize=7;align=center;verticalAlign=middle;arcSize=5;fontFamily=Helvetica;spacingLeft=6;spacingTop=2;html=1;" vertex="1" parent="1">
          <mxGeometry x="-180" y="367.5" width="110" height="30" as="geometry" />
        </mxCell>
        <mxCell id="aNiqXzNtH5demji9GXow-56" value="&lt;b&gt;Domain Manager/&lt;/b&gt;&lt;div&gt;&lt;b&gt;Event Indexer&lt;/b&gt;&lt;/div&gt;" style="rounded=1;whiteSpace=wrap;fontSize=7;align=center;verticalAlign=middle;arcSize=5;fontFamily=Helvetica;spacingLeft=6;spacingTop=2;html=1;" vertex="1" parent="1">
          <mxGeometry x="-180" y="407.5" width="110" height="30" as="geometry" />
        </mxCell>
        <mxCell id="aNiqXzNtH5demji9GXow-57" value="&lt;b&gt;TransportManager&lt;/b&gt;" style="rounded=1;whiteSpace=wrap;fontSize=7;align=center;verticalAlign=middle;arcSize=5;fontFamily=Helvetica;spacingLeft=6;spacingTop=2;html=1;" vertex="1" parent="1">
          <mxGeometry x="-180" y="447.5" width="110" height="30" as="geometry" />
        </mxCell>
        <mxCell id="aNiqXzNtH5demji9GXow-62" value="" style="endArrow=classic;html=1;rounded=0;exitX=1;exitY=0.5;exitDx=0;exitDy=0;entryX=0;entryY=0.207;entryDx=0;entryDy=0;entryPerimeter=0;" edge="1" parent="1">
          <mxGeometry width="50" height="50" relative="1" as="geometry">
            <mxPoint x="-70" y="347.5" as="sourcePoint" />
            <mxPoint y="347.5" as="targetPoint" />
          </mxGeometry>
        </mxCell>
        <mxCell id="aNiqXzNtH5demji9GXow-63" value="" style="endArrow=classic;html=1;rounded=0;exitX=1;exitY=0.5;exitDx=0;exitDy=0;entryX=0;entryY=0.207;entryDx=0;entryDy=0;entryPerimeter=0;" edge="1" parent="1">
          <mxGeometry width="50" height="50" relative="1" as="geometry">
            <mxPoint x="-70" y="382.22" as="sourcePoint" />
            <mxPoint y="382.22" as="targetPoint" />
          </mxGeometry>
        </mxCell>
        <mxCell id="aNiqXzNtH5demji9GXow-64" value="" style="endArrow=classic;html=1;rounded=0;exitX=1;exitY=0.5;exitDx=0;exitDy=0;entryX=0;entryY=0.207;entryDx=0;entryDy=0;entryPerimeter=0;" edge="1" parent="1">
          <mxGeometry width="50" height="50" relative="1" as="geometry">
            <mxPoint x="-70" y="422.22" as="sourcePoint" />
            <mxPoint y="422.22" as="targetPoint" />
          </mxGeometry>
        </mxCell>
        <mxCell id="aNiqXzNtH5demji9GXow-65" value="" style="endArrow=classic;html=1;rounded=0;exitX=1;exitY=0.5;exitDx=0;exitDy=0;entryX=0;entryY=0.207;entryDx=0;entryDy=0;entryPerimeter=0;" edge="1" parent="1">
          <mxGeometry width="50" height="50" relative="1" as="geometry">
            <mxPoint x="-70" y="462.36" as="sourcePoint" />
            <mxPoint y="462.36" as="targetPoint" />
          </mxGeometry>
        </mxCell>
        <mxCell id="aNiqXzNtH5demji9GXow-66" value="" style="endArrow=classic;html=1;rounded=0;entryX=0;entryY=0.5;entryDx=0;entryDy=0;exitX=1;exitY=0.5;exitDx=0;exitDy=0;" edge="1" parent="1" source="aNiqXzNtH5demji9GXow-1" target="aNiqXzNtH5demji9GXow-2">
          <mxGeometry width="50" height="50" relative="1" as="geometry">
            <mxPoint x="210" y="380" as="sourcePoint" />
            <mxPoint x="250" y="392.15999999999997" as="targetPoint" />
          </mxGeometry>
        </mxCell>
        <mxCell id="aNiqXzNtH5demji9GXow-68" value="" style="endArrow=classic;html=1;rounded=0;entryX=-0.002;entryY=0.478;entryDx=0;entryDy=0;entryPerimeter=0;exitX=1;exitY=0.5;exitDx=0;exitDy=0;" edge="1" parent="1" source="aNiqXzNtH5demji9GXow-2" target="aNiqXzNtH5demji9GXow-4">
          <mxGeometry width="50" height="50" relative="1" as="geometry">
            <mxPoint x="490" y="410" as="sourcePoint" />
            <mxPoint x="520" y="394.99999999999994" as="targetPoint" />
          </mxGeometry>
        </mxCell>
      </root>
    </mxGraphModel>
  </diagram>
</mxfile>
